HIERARCHY
ROOT Hips
{
  OFFSET 49.6878 100.652 10.9139
  CHANNELS 6 Xposition Yposition Zposition Zrotation Xrotation Yrotation
  JOINT spine
  {
    OFFSET 0 8.81705 0.507024
    CHANNELS 3 Zrotation Xrotation Yrotation
    JOINT spine1
    {
      OFFSET 0 10.7766 0
      CHANNELS 3 Zrotation Xrotation Yrotation
      JOINT spine2
      {
        OFFSET 0 10.3259 0
        CHANNELS 3 Zrotation Xrotation Yrotation
        JOINT Neck
        {
          OFFSET 0 26.511 1.26395
          CHANNELS 3 Zrotation Xrotation Yrotation
          JOINT Head
          {
            OFFSET 0 8.00966 0
            CHANNELS 3 Zrotation Xrotation Yrotation
            End Site
            {
              OFFSET 0 19.3879 -6.39386
            }
          }
        }
        JOINT RightShoulder
        {
          OFFSET -4.34795 11.1512 -0.605422
          CHANNELS 3 Zrotation Xrotation Yrotation
          JOINT RightArm
          {
            OFFSET 0 14.6258 0
            CHANNELS 3 Zrotation Xrotation Yrotation
            JOINT RightArmRoll
            {
              OFFSET 0 7.3834 0
              CHANNELS 3 Zrotation Xrotation Yrotation
              JOINT RightForeArm
              {
                OFFSET 0 21.5052 0
                CHANNELS 3 Zrotation Xrotation Yrotation
                JOINT RightForeArmRoll
                {
                  OFFSET 0 8.28532 0
                  CHANNELS 3 Zrotation Xrotation Yrotation
                  JOINT RightHand
                  {
                    OFFSET 0 16.6268 0
                    CHANNELS 3 Zrotation Xrotation Yrotation
                    End Site
                    {
                      OFFSET 0 0 0
                    }
                  }
                }
              }
            }
          }
        }
        JOINT LeftShoulder
        {
          OFFSET 4.34795 11.1512 -0.605422
          CHANNELS 3 Zrotation Xrotation Yrotation
          JOINT LeftArm
          {
            OFFSET 0 14.6258 0
            CHANNELS 3 Zrotation Xrotation Yrotation
            JOINT LeftArmRoll
            {
              OFFSET 0 7.3834 0
              CHANNELS 3 Zrotation Xrotation Yrotation
              JOINT LeftForeArm
              {
                OFFSET 0 21.5052 0
                CHANNELS 3 Zrotation Xrotation Yrotation
                JOINT LeftForeArmRoll
                {
                  OFFSET 0 8.28532 0
                  CHANNELS 3 Zrotation Xrotation Yrotation
                  JOINT LeftHand
                  {
                    OFFSET 0 16.6268 0
                    CHANNELS 3 Zrotation Xrotation Yrotation
                    End Site
                    {
                      OFFSET 0 0 0
                    }
                  }
                }
              }
            }
          }
        }
      }
    }
  }
  JOINT RightUpLeg
  {
    OFFSET -7.8151 -1.43309 -1.20217
    CHANNELS 3 Zrotation Xrotation Yrotation
    JOINT RightUpLegRoll
    {
      OFFSET 0 19.4959 0
      CHANNELS 3 Zrotation Xrotation Yrotation
      JOINT RightLeg
      {
        OFFSET 0 -24.1427 0
        CHANNELS 3 Zrotation Xrotation Yrotation
        JOINT RightLegRoll
        {
          OFFSET 0 24.2217 0
          CHANNELS 3 Zrotation Xrotation Yrotation
          JOINT RightFoot
          {
            OFFSET 0 20.1605 0
            CHANNELS 3 Zrotation Xrotation Yrotation
            JOINT RightToeBase
            {
              OFFSET 0 16.8532 0
              CHANNELS 3 Zrotation Xrotation Yrotation
              End Site
              {
                OFFSET 0.00714343 8.16187 -0.94078
              }
            }
          }
        }
      }
    }
  }
  JOINT LeftUpLeg
  {
    OFFSET 7.8151 -1.43309 -1.20217
    CHANNELS 3 Zrotation Xrotation Yrotation
    JOINT LeftUpLegRoll
    {
      OFFSET 0 19.496 0
      CHANNELS 3 Zrotation Xrotation Yrotation
      JOINT LeftLeg
      {
        OFFSET 0 24.1426 0
        CHANNELS 3 Zrotation Xrotation Yrotation
        JOINT LeftLegRoll
        {
          OFFSET 0 24.4456 0
          CHANNELS 3 Zrotation Xrotation Yrotation
          JOINT LeftFoot
          {
            OFFSET 0 19.9366 0
            CHANNELS 3 Zrotation Xrotation Yrotation
            JOINT LeftToeBase
            {
              OFFSET 0 16.8532 0
              CHANNELS 3 Zrotation Xrotation Yrotation
              End Site
              {
                OFFSET -0.0320138 8.16187 -0.94078
              }
            }
          }
        }
      }
    }
  }
}
MOTION
Frames: 5
Frame Time: 0.00208333
49.9504 100.559 12.3779 -0.887253 -0.560658 0.918752 -0.221787 -3.07118 -0.106464 -0.454901 -2.13986 -0.188584 -0.450799 -0.494819 -0.180916 -0.109012 21.9527 1.58075 -3.47712 3.51162 1.28822 10.8434 -13.4259 -11.0511 -1.01477 46.0553 102.476 2.68845e-007 -5.8483e-008 -7.74466e-007 -8.4853 37.6153 5.66053 -1.29106e-005 1.36443e-006 -3.00767 8.02891 -4.95144 0.69768 -26.7879 -10.4803 6.60069 25.6072 34.2405 -92.2899 -3.18055e-015 1.55018e-006 -1.59028e-015 3.21152 29.5182 0.0932976 1.84916e-006 -2.2305e-006 3.01152 -8.02887 -4.95143 -0.697669 178.744 -0.364922 -0.980583 180 7.01548e-015 178.929 179.112 5.70443 179.683 -1.494e-006 -2.10155e-006 0.0640827 -18.7893 68.1501 19.6601 8.15606 25.5209 -3.09048 -176.184 0.631191 1.4875 4.54188e-006 -4.6773e-006 -1.09964 -2.57098 -8.553 0.121467 1.48736e-006 -4.48412e-006 -0.152002 20.1648 69.7342 -21.094 -8.16017 25.6009 2.98419 
49.9456 100.561 12.3843 -0.885097 -0.569005 0.89073 -0.221451 -3.06777 -0.108117 -0.454062 -2.13312 -0.19206 -0.450021 -0.488076 -0.184412 -0.108239 21.8918 1.57137 -3.53683 3.57627 1.27674 10.796 -13.488 -11.148 -1.39173 46.1497 102.799 2.68845e-007 -5.8483e-008 -7.74466e-007 -8.4636 37.7345 5.67306 -1.29106e-005 1.36443e-006 -3.00767 8.02891 -4.95144 0.69768 -26.7043 -10.5011 6.62422 25.727 34.1456 -92.4052 3.18055e-014 1.55018e-006 -1.11319e-014 3.27945 29.3142 0.0820117 1.84916e-006 -2.2305e-006 3.01152 -8.02887 -4.95143 -0.697669 178.74 -0.376078 -0.977633 180 7.01548e-015 178.929 179.111 5.70357 179.683 -1.494e-006 -2.10155e-006 0.0641683 -18.7924 68.1541 19.6635 8.15601 25.5201 -3.0918 -176.188 0.609142 1.48778 4.54188e-006 -4.6773e-006 -1.0999 -2.57239 -8.55088 0.121423 1.48736e-006 -4.48412e-006 -0.152044 20.1711 69.7408 -21.1008 -8.16026 25.6023 2.98233 
49.9484 100.565 12.3906 -0.88279 -0.577466 0.862194 -0.221087 -3.06418 -0.109782 -0.453106 -2.12596 -0.195688 -0.449144 -0.480921 -0.188061 -0.108092 21.8256 1.56228 -3.5978 3.64667 1.26546 10.7497 -13.5544 -11.2516 -1.77882 46.2471 103.135 2.68845e-007 -5.8483e-008 -7.74466e-007 -8.44363 37.8501 5.68578 -1.29106e-005 1.36443e-006 -3.00767 8.02891 -4.95144 0.69768 -26.616 -10.5255 6.65176 25.8382 34.0519 -92.5238 -3.18055e-015 1.55018e-006 3.18055e-015 3.35458 29.0837 0.0697601 1.84916e-006 -2.2305e-006 3.01152 -8.02887 -4.95143 -0.697669 178.737 -0.387308 -0.974431 180 7.01548e-015 178.929 179.111 5.70261 179.683 -1.494e-006 -2.10155e-006 0.0642335 -18.7954 68.1581 19.6669 8.15596 25.5195 -3.09312 -176.193 0.586665 1.48827 4.54188e-006 -4.6773e-006 -1.10016 -2.57381 -8.54833 0.121398 1.48736e-006 -4.48412e-006 -0.152085 20.1772 69.7473 -21.1074 -8.16035 25.6036 2.98045 
49.9488 100.563 12.4046 -0.880358 -0.585931 0.833172 -0.220687 -3.06045 -0.111453 -0.452022 -2.1185 -0.19944 -0.448154 -0.47346 -0.191837 -0.108967 21.7547 1.55365 -3.65938 3.7219 1.25446 10.7041 -13.6239 -11.3601 -2.17315 46.3455 103.481 2.68845e-007 -5.8483e-008 -7.74466e-007 -8.42514 37.9618 5.69851 -1.29106e-005 1.36443e-006 -3.00767 8.02891 -4.95144 0.69768 -26.5235 -10.5535 6.68329 25.9419 33.96 -92.6464 3.18055e-015 1.55018e-006 3.18055e-015 3.43611 28.8331 0.0564218 1.84916e-006 -2.2305e-006 3.01152 -8.02887 -4.95143 -0.697669 178.733 -0.398498 -0.971019 180 7.01548e-015 178.929 179.11 5.70157 179.683 -1.494e-006 -2.10155e-006 0.0642823 -18.7984 68.1619 19.6701 8.15592 25.5188 -3.09443 -176.197 0.563933 1.48893 4.54188e-006 -4.6773e-006 -1.10041 -2.57524 -8.54543 0.121386 1.48736e-006 -4.48412e-006 -0.152126 20.1831 69.7535 -21.1137 -8.16045 25.605 2.97855 
49.9415 100.564 12.41 -0.877828 -0.594288 0.803693 -0.220238 -3.05665 -0.113123 -0.450803 -2.11084 -0.203289 -0.447039 -0.465798 -0.195713 -0.111262 21.6796 1.54569 -3.7209 3.80101 1.24384 10.6588 -13.6955 -11.4718 -2.57186 46.4434 103.833 2.68845e-007 -5.8483e-008 -7.74466e-007 -8.40788 38.0696 5.71103 -1.29106e-005 1.36443e-006 -3.00767 8.02891 -4.95144 0.69768 -26.4274 -10.5849 6.71882 26.0391 33.8704 -92.7732 9.54166e-015 1.55018e-006 -4.77083e-015 3.52326 28.569 0.0418741 1.84916e-006 -2.2305e-006 3.01152 -8.02887 -4.95143 -0.697669 178.728 -0.409535 -0.967437 180 7.01548e-015 178.929 179.109 5.7004 179.683 -1.494e-006 -2.10155e-006 0.0643188 -18.8012 68.1657 19.6733 8.15588 25.5182 -3.09575 -176.202 0.541115 1.48972 4.54188e-006 -4.6773e-006 -1.10065 -2.57671 -8.54227 0.121381 1.48736e-006 -4.48412e-006 -0.152166 20.1889 69.7595 -21.1199 -8.16054 25.6064 2.97661 
